<svg xmlns="http://www.w3.org/2000/svg" xmlns:xlink="http://www.w3.org/1999/xlink" width="500" zoomAndPan="magnify" viewBox="0 0 375 374.999991" height="500" preserveAspectRatio="xMidYMid meet" version="1.0"><defs><g/><clipPath id="5b175a7b57"><path d="M 40.847656 172.523438 L 334.152344 172.523438 L 334.152344 202.476562 L 40.847656 202.476562 Z M 40.847656 172.523438 " clip-rule="nonzero"/></clipPath></defs><rect x="-37.5" width="450" fill="#ffffff" y="-37.499999" height="449.999989" fill-opacity="1"/><rect x="-37.5" width="450" fill="#fbfaf9" y="-37.499999" height="449.999989" fill-opacity="1"/><g fill="#231f20" fill-opacity="1"><g transform="translate(21.872417, 232.008926)"><g><path d="M 37.515625 -89.796875 L 4.257812 -89.796875 L 4.257812 -89 L 11.441406 -82.082031 L 11.441406 -7.714844 L 4.257812 -0.796875 L 4.257812 0 L 37.78125 0 C 75.828125 0 86.738281 -25.808594 86.738281 -47.09375 C 86.738281 -75.695312 70.109375 -89.796875 37.515625 -89.796875 Z M 37.382812 -2.660156 L 37.382812 -87.402344 L 38.046875 -87.402344 C 54.945312 -87.402344 59.332031 -74.765625 59.332031 -44.964844 C 59.332031 -13.570312 54.675781 -2.660156 39.910156 -2.660156 Z M 37.382812 -2.660156 "/></g></g></g><g fill="#231f20" fill-opacity="1"><g transform="translate(107.94354, 232.008926)"><g><path d="M 89.398438 -89.796875 L 49.621094 -89.796875 L 49.621094 -89 L 56.539062 -81.550781 L 56.539062 -44.699219 L 37.117188 -44.699219 L 37.117188 -81.550781 L 43.902344 -89 L 43.902344 -89.796875 L 4.257812 -89.796875 L 4.257812 -89 L 11.042969 -81.550781 L 11.042969 -8.25 L 4.257812 -0.796875 L 4.257812 0 L 43.902344 0 L 43.902344 -0.796875 L 37.117188 -8.25 L 37.117188 -42.304688 L 56.539062 -42.304688 L 56.539062 -8.25 L 49.621094 -0.796875 L 49.621094 0 L 89.398438 0 L 89.398438 -0.796875 L 82.480469 -8.25 L 82.480469 -81.550781 L 89.398438 -89 Z M 89.398438 -89.796875 "/></g></g></g><g fill="#231f20" fill-opacity="1"><g transform="translate(197.47348, 232.008926)"><g><path d="M 45.097656 1.996094 C 50.820312 1.996094 86.339844 -5.988281 86.339844 -44.964844 C 86.339844 -70.90625 68.511719 -91.660156 44.832031 -91.660156 C 38.980469 -91.660156 3.457031 -83.679688 3.457031 -44.699219 C 3.457031 -18.757812 21.019531 1.996094 45.097656 1.996094 Z M 60.664062 -5.855469 C 51.882812 -3.191406 39.644531 -17.5625 30.199219 -42.4375 C 20.753906 -67.316406 22.082031 -81.550781 29 -83.8125 C 37.25 -86.207031 48.292969 -74.367188 57.605469 -51.085938 C 67.980469 -25.277344 67.847656 -8.25 60.664062 -5.855469 Z M 60.664062 -5.855469 "/></g></g></g><g fill="#231f20" fill-opacity="1"><g transform="translate(283.145501, 232.008926)"><g><path d="M 60.796875 -81.550781 L 67.582031 -89 L 67.582031 -89.796875 L 27.9375 -89.796875 L 27.9375 -89 L 34.722656 -81.550781 L 34.722656 -27.9375 C 34.722656 -7.449219 34.589844 -1.464844 30.332031 -1.464844 C 21.019531 -1.464844 21.152344 -34.457031 22.75 -45.898438 L 21.949219 -46.296875 L 0.664062 -14.367188 C 7.183594 -2.394531 15.566406 1.863281 25.941406 1.863281 C 39.113281 1.863281 60.796875 -20.355469 60.796875 -28.203125 Z M 60.796875 -81.550781 "/></g></g></g><g clip-path="url(#5b175a7b57)"><path fill="#fbfaf9" d="M 40.847656 172.523438 L 334.152344 172.523438 L 334.152344 202.476562 L 40.847656 202.476562 Z M 40.847656 172.523438 " fill-opacity="1" fill-rule="nonzero"/></g><g fill="#231f20" fill-opacity="1"><g transform="translate(87.550973, 190.332643)"><g><path d="M 0.480469 0 L 5.695312 0 C 7.199219 0 8.175781 -0.746094 8.175781 -1.886719 C 8.175781 -2.664062 7.667969 -3.296875 6.890625 -3.480469 L 6.890625 -3.488281 C 7.554688 -3.691406 7.984375 -4.253906 7.984375 -4.945312 C 7.984375 -6.066406 7.0625 -6.796875 5.65625 -6.796875 L 0.480469 -6.796875 Z M 1.8125 -3.910156 L 1.8125 -5.894531 L 5.328125 -5.894531 C 6.132812 -5.894531 6.652344 -5.511719 6.652344 -4.898438 C 6.652344 -4.292969 6.132812 -3.910156 5.339844 -3.910156 Z M 1.8125 -0.902344 L 1.8125 -3.078125 L 5.347656 -3.078125 C 6.25 -3.078125 6.84375 -2.636719 6.84375 -1.992188 C 6.84375 -1.332031 6.25 -0.902344 5.347656 -0.902344 Z M 1.8125 -0.902344 "/></g></g></g><g fill="#231f20" fill-opacity="1"><g transform="translate(103.587338, 190.332643)"><g><path d="M 3.375 0 L 4.707031 0 L 4.707031 -2.464844 L 8.042969 -6.796875 L 6.519531 -6.796875 L 4.042969 -3.480469 L 4.035156 -3.480469 L 1.523438 -6.796875 L -0.0078125 -6.796875 L 3.375 -2.464844 Z M 3.375 0 "/></g></g></g><g fill="#231f20" fill-opacity="1"><g transform="translate(119.288596, 190.332643)"><g/></g></g><g fill="#231f20" fill-opacity="1"><g transform="translate(129.724028, 190.332643)"><g><path d="M 0.480469 0 L 4.746094 0 C 7.3125 0 8.742188 -1.21875 8.742188 -3.394531 C 8.742188 -5.578125 7.3125 -6.796875 4.746094 -6.796875 L 0.480469 -6.796875 Z M 1.792969 -1.007812 L 1.792969 -5.769531 L 4.628906 -5.769531 C 6.429688 -5.769531 7.4375 -4.925781 7.4375 -3.394531 C 7.4375 -1.859375 6.429688 -1.007812 4.628906 -1.007812 Z M 1.792969 -1.007812 "/></g></g></g><g fill="#231f20" fill-opacity="1"><g transform="translate(146.488031, 190.332643)"><g><path d="M 0.480469 0 L 1.800781 0 L 1.800781 -6.796875 L 0.480469 -6.796875 Z M 0.480469 0 "/></g></g></g><g fill="#231f20" fill-opacity="1"><g transform="translate(156.435178, 190.332643)"><g><path d="M 0.480469 0 L 1.8125 0 L 1.8125 -2.347656 L 5.40625 -2.347656 C 7.140625 -2.347656 8.109375 -3.164062 8.117188 -4.554688 C 8.117188 -5.972656 7.152344 -6.796875 5.414062 -6.796875 L 0.480469 -6.796875 Z M 1.8125 -3.269531 L 1.8125 -5.867188 L 5.078125 -5.867188 C 6.171875 -5.867188 6.785156 -5.386719 6.785156 -4.5625 C 6.785156 -3.746094 6.171875 -3.269531 5.078125 -3.269531 Z M 1.8125 -3.269531 "/></g></g></g><g fill="#231f20" fill-opacity="1"><g transform="translate(172.366222, 190.332643)"><g><path d="M 0.480469 0 L 7.332031 0 L 7.332031 -0.96875 L 1.773438 -0.96875 L 1.773438 -3.046875 L 6.851562 -3.046875 L 6.851562 -3.9375 L 1.773438 -3.9375 L 1.773438 -5.816406 L 7.238281 -5.816406 L 7.238281 -6.796875 L 0.480469 -6.796875 Z M 0.480469 0 "/></g></g></g><g fill="#231f20" fill-opacity="1"><g transform="translate(187.550471, 190.332643)"><g><path d="M 4.378906 0.230469 C 6.5 0.230469 7.917969 -0.652344 7.917969 -1.957031 C 7.917969 -3.046875 7.046875 -3.632812 5.023438 -3.910156 L 3.429688 -4.132812 C 2.367188 -4.273438 1.917969 -4.542969 1.917969 -5.003906 C 1.917969 -5.625 2.761719 -6.058594 3.9375 -6.058594 C 5.117188 -6.058594 6.203125 -5.578125 6.730469 -4.898438 L 7.351562 -5.675781 C 6.746094 -6.46875 5.433594 -7.027344 3.929688 -7.027344 C 1.984375 -7.027344 0.605469 -6.230469 0.605469 -4.917969 C 0.605469 -3.863281 1.359375 -3.324219 3.132812 -3.097656 L 4.746094 -2.847656 C 6.046875 -2.664062 6.605469 -2.347656 6.605469 -1.839844 C 6.605469 -1.21875 5.742188 -0.757812 4.449219 -0.757812 C 2.867188 -0.757812 1.410156 -1.429688 0.910156 -2.394531 L 0.191406 -1.628906 C 0.832031 -0.535156 2.492188 0.230469 4.378906 0.230469 Z M 4.378906 0.230469 "/></g></g></g><g fill="#231f20" fill-opacity="1"><g transform="translate(203.318758, 190.332643)"><g><path d="M 0.480469 0 L 1.8125 0 L 1.8125 -3.046875 L 6.882812 -3.046875 L 6.882812 0 L 8.203125 0 L 8.203125 -6.796875 L 6.882812 -6.796875 L 6.882812 -4.054688 L 1.8125 -4.054688 L 1.8125 -6.796875 L 0.480469 -6.796875 Z M 0.480469 0 "/></g></g></g><g fill="#231f20" fill-opacity="1"><g transform="translate(219.661493, 190.332643)"><g/></g></g><g fill="#231f20" fill-opacity="1"><g transform="translate(230.096924, 190.332643)"><g><path d="M 0.480469 0 L 4.746094 0 C 7.3125 0 8.742188 -1.21875 8.742188 -3.394531 C 8.742188 -5.578125 7.3125 -6.796875 4.746094 -6.796875 L 0.480469 -6.796875 Z M 1.792969 -1.007812 L 1.792969 -5.769531 L 4.628906 -5.769531 C 6.429688 -5.769531 7.4375 -4.925781 7.4375 -3.394531 C 7.4375 -1.859375 6.429688 -1.007812 4.628906 -1.007812 Z M 1.792969 -1.007812 "/></g></g></g><g fill="#231f20" fill-opacity="1"><g transform="translate(246.860927, 190.332643)"><g><path d="M 0.480469 0 L 1.8125 0 L 1.8125 -3.046875 L 6.882812 -3.046875 L 6.882812 0 L 8.203125 0 L 8.203125 -6.796875 L 6.882812 -6.796875 L 6.882812 -4.054688 L 1.8125 -4.054688 L 1.8125 -6.796875 L 0.480469 -6.796875 Z M 0.480469 0 "/></g></g></g><g fill="#231f20" fill-opacity="1"><g transform="translate(263.203662, 190.332643)"><g><path d="M 5.089844 0.238281 C 7.90625 0.238281 9.824219 -1.238281 9.824219 -3.394531 C 9.824219 -5.539062 7.90625 -7.035156 5.089844 -7.035156 C 2.28125 -7.035156 0.363281 -5.539062 0.363281 -3.394531 C 0.363281 -1.238281 2.28125 0.238281 5.089844 0.238281 Z M 5.089844 -0.796875 C 3.085938 -0.796875 1.695312 -1.859375 1.695312 -3.394531 C 1.695312 -4.925781 3.085938 -5.992188 5.089844 -5.992188 C 7.09375 -5.992188 8.492188 -4.925781 8.492188 -3.394531 C 8.492188 -1.859375 7.09375 -0.796875 5.089844 -0.796875 Z M 5.089844 -0.796875 "/></g></g></g><g fill="#231f20" fill-opacity="1"><g transform="translate(281.049543, 190.332643)"><g><path d="M 3.132812 0.183594 C 4.925781 0.183594 6 -0.816406 6 -2.433594 L 6 -6.796875 L 4.667969 -6.796875 L 4.667969 -2.519531 C 4.667969 -1.476562 4.054688 -0.824219 3.066406 -0.824219 C 2.070312 -0.824219 1.398438 -1.398438 1.253906 -2.414062 L 0.105469 -2.023438 C 0.355469 -0.613281 1.457031 0.183594 3.132812 0.183594 Z M 3.132812 0.183594 "/></g></g></g></svg>